# xmcd
#
# Track frame offsets:
# 150
# 9910
# 23412
# 38210
# 51822
# 64255
# 82040
# 90627
# 104077
# 124254
# 133232
# 146835
# 155642
# 169657
#
# Disc length: 2355 seconds
#
#
# Revision: 0
# Processed by: cddbd v1.5PL3 Copyright (c) Steve Scherf et al.
# Submitted via: FreeRIP 2.53 
#
DISCID=c009310e
DTITLE=Davis Raines - Big Shiny cars
DYEAR=1998
DGENRE=Singer-Songwriter
TTITLE0=Hell for breakfast
TTITLE1=Limestone Chain
TTITLE2=Big shiny cars
TTITLE3=Last hard man in Elmore County
TTITLE4=Truck driver from Mars
TTITLE5=Cajun dick
TTITLE6=Say that you love me again
TTITLE7=Hills of Cedron
TTITLE8=Black and bloody war
TTITLE9=Working homicide
TTITLE10=Whiskey for me
TTITLE11=Leavin' train
TTITLE12=Sheik of Mountain Creek
TTITLE13=Booger red loves cornbread
EXTD=
EXTT0=
EXTT1=
EXTT2=
EXTT3=
EXTT4=
EXTT5=
EXTT6=
EXTT7=
EXTT8=
EXTT9=
EXTT10=
EXTT11=
EXTT12=
EXTT13=
PLAYORDER=
